<svg xmlns="http://www.w3.org/2000/svg" viewBox="0 0 64 64"><defs><style>.cls-1{opacity:0.2;}</style></defs><title>galaxy</title><g id="galaxy"><path d="M32,26a6,6,0,1,0,6,6A6,6,0,0,0,32,26Zm0,10a4,4,0,1,1,4-4A4,4,0,0,1,32,36Z"/><path d="M18.38,25.71A15.06,15.06,0,0,1,32,17a1,1,0,0,1,0,2,13,13,0,0,0-11.8,7.55A1,1,0,0,1,18.38,25.71Z"/><path d="M17,32c0-.38,0-.76,0-1.13a1,1,0,0,1,2,.18c0,.31,0,.63,0,.95A1,1,0,0,1,17,32Z"/><path d="M32,47a1,1,0,0,1,0-2A13,13,0,0,0,45,32a1,1,0,0,1,2,0A15,15,0,0,1,32,47Z"/><path d="M20.38,46.82a1,1,0,0,1-.86.49c-.9,0-5.64-4.51-7.06-11a1,1,0,0,1,2-.43,18,18,0,0,0,5,9C20.06,45.46,20.88,46,20.38,46.82Z"/><path d="M12,33.05q0-.52,0-1a1,1,0,0,1,2,0c0,.32,0,.64,0,1A1,1,0,0,1,12,33.05Z"/><path d="M33,51a1,1,0,0,1-1,1,19.71,19.71,0,0,1-7.79-1.58A1,1,0,0,1,23.75,49v0c.57-.84,1.36-.29,2.13,0C30.83,50.74,33,49.23,33,51Z"/><path d="M50,32a17.3,17.3,0,0,0-.12-2.09,1,1,0,0,1,2-.24A19.07,19.07,0,0,1,52,32,1,1,0,0,1,50,32Z"/><path d="M46.9,21.92a18,18,0,0,0-8.26-6.65,1,1,0,0,1,.74-1.86,20,20,0,0,1,9.18,7.39A1,1,0,0,1,46.9,21.92Z"/><path d="M36.11,14.45c-.26,0-.27-.07-1.27-.23a1,1,0,0,1,.31-2c.4.06.79.13,1.17.22A1,1,0,0,1,36.11,14.45Z"/><path d="M13.08,15.66A24.94,24.94,0,0,1,28.9,7.2a1,1,0,0,1,.24,2A23,23,0,0,0,14.59,17,1,1,0,0,1,13.08,15.66Z"/><path d="M7.33,28a24.68,24.68,0,0,1,3.6-9.41,1,1,0,0,1,1.38-.3c1.69,1.08-1.8,2.59-3,10A1,1,0,0,1,7.33,28Z"/><path d="M7,32c0-.33,0-.65,0-1a1,1,0,0,1,2,.08c0,.3,0,.6,0,.9A1,1,0,0,1,7,32Z"/><path d="M42.32,31.05a2.85,2.85,0,0,1-1.41-4.35,1,1,0,0,0-1.12-1.53,2.87,2.87,0,0,1-3.7-2.7,1,1,0,0,0-1.8-.58,2.87,2.87,0,0,1-4.58,0,1,1,0,0,0-1.8.58,2.86,2.86,0,0,1-3.7,2.7,1,1,0,0,0-1.12,1.53,2.86,2.86,0,0,1-1.41,4.35,1,1,0,0,0,0,1.9,2.85,2.85,0,0,1,1.41,4.35,1,1,0,0,0,1.12,1.53,2.86,2.86,0,0,1,3.7,2.7,1,1,0,0,0,1.8.58,2.87,2.87,0,0,1,4.58,0,1,1,0,0,0,1.11.35c1.25-.4.08-1.91,1.87-3.21s2.85.28,3.63-.78-1.07-1.61-.37-3.7S43,33.35,43,32A1,1,0,0,0,42.32,31.05ZM38.5,36.72a4.93,4.93,0,0,0-4,2.92,5,5,0,0,0-5,0,4.91,4.91,0,0,0-4-2.92A4.89,4.89,0,0,0,24,32a4.89,4.89,0,0,0,1.53-4.72,4.93,4.93,0,0,0,4-2.92,5,5,0,0,0,5,0,4.93,4.93,0,0,0,4,2.92A4.89,4.89,0,0,0,40,32,4.89,4.89,0,0,0,38.5,36.72Z"/><path class="cls-1" d="M40,32a4.89,4.89,0,0,1-1.53-4.72,4.93,4.93,0,0,1-4-2.92,5,5,0,0,1-5,0,4.93,4.93,0,0,1-4,2.92A4.89,4.89,0,0,1,24,32a4.89,4.89,0,0,1,1.53,4.72,4.93,4.93,0,0,1,4,2.92,5,5,0,0,1,5,0,4.91,4.91,0,0,1,4-2.92A4.89,4.89,0,0,1,40,32Zm-8,6a6,6,0,1,1,6-6A6,6,0,0,1,32,38Z"/><path d="M31.5,5A3.5,3.5,0,1,0,35,8.5,3.51,3.51,0,0,0,31.5,5Zm0,5a1.5,1.5,0,0,1,0-3A1.5,1.5,0,0,1,31.5,10Z"/><path class="cls-1" d="M33,8.5a1.5,1.5,0,0,1-3,0A1.5,1.5,0,0,1,33,8.5Z"/><path d="M49.5,20a5.41,5.41,0,0,0-3.23,1.06A5.49,5.49,0,1,0,49.5,20Zm0,9A3.5,3.5,0,1,1,53,25.5,3.5,3.5,0,0,1,49.5,29Z"/><circle class="cls-1" cx="49.5" cy="25.5" r="3.5"/><path d="M20.62,25.73A3.41,3.41,0,0,0,18.5,25,3.5,3.5,0,0,0,17,31.66a3.35,3.35,0,0,0,2,.3A3.49,3.49,0,0,0,20.62,25.73ZM17,28.5a1.5,1.5,0,0,1,3,0A1.5,1.5,0,0,1,17,28.5Z"/><path class="cls-1" d="M20,28.5A1.5,1.5,0,1,1,18.5,27,1.5,1.5,0,0,1,20,28.5Z"/><path d="M32,55a1,1,0,0,1,0-2l.92,0A1,1,0,0,1,33,55Z"/><path d="M45.48,50.63a23,23,0,0,1-9.42,4,1,1,0,0,1-1.16-.81c-.36-1.93,2.86-.48,8.6-4.27.71-.45,1.29-1.11,2-.51a2,2,0,0,0,.19.22A1,1,0,0,1,45.48,50.63Z"/><path d="M51,41a20.4,20.4,0,0,0,1.81-6,1,1,0,0,1,2,.28,22.61,22.61,0,0,1-2,6.58A1,1,0,0,1,51,41Z"/><path d="M47.5,43A4.5,4.5,0,1,0,52,47.5,4.5,4.5,0,0,0,47.5,43Zm-2,6A2.5,2.5,0,1,1,50,47.5,2.5,2.5,0,0,1,45.54,49.05Z"/><path class="cls-1" d="M50,47.5A2.5,2.5,0,1,1,47.5,45,2.51,2.51,0,0,1,50,47.5Z"/><path d="M9,39a3,3,0,1,0,3,3A3,3,0,0,0,9,39Zm0,4a1,1,0,0,1,0-2A1,1,0,0,1,9,43Z"/><path class="cls-1" d="M10,42a1,1,0,0,1-2,0A1,1,0,0,1,10,42Z"/><path d="M45.5,8A2.5,2.5,0,1,0,48,10.5,2.5,2.5,0,0,0,45.5,8Zm0,3a.5.5,0,0,1,0-1A.5.5,0,0,1,45.5,11Z"/><path class="cls-1" d="M46,10.5a.5.5,0,0,1-1,0A.5.5,0,0,1,46,10.5Z"/><path d="M22,44a4,4,0,1,0,3.89,4.93A4,4,0,0,0,22,44Zm-1.62,2.82A2,2,0,0,1,23.76,49v0A2,2,0,1,1,20.38,46.82Z"/><path class="cls-1" d="M24,48a2.08,2.08,0,0,1-.25,1A2,2,0,1,1,24,48Z"/><path d="M26,59a2,2,0,1,1,2-2A2,2,0,0,1,26,59Zm0-2h0Zm0,0h0Zm0,0h0Zm0,0h0Zm0,0h0Zm0,0h0Zm0,0h0Zm0,0h0Z"/></g></svg>